<svg xmlns="http://www.w3.org/2000/svg" viewBox="22 68 476 132" width="476" height="132" role="img" aria-label="Flow Matching Parameterisation">
<style>
.t{font-family:ui-monospace,'JetBrains Mono','SF Mono',SFMono-Regular,Menlo,Consolas,monospace}
@keyframes pop{from{opacity:0;transform:translateY(4px)}to{opacity:1;transform:translateY(0)}}
@keyframes dash{to{stroke-dashoffset:-44}}
@keyframes scan{0%{transform:translateY(0)}50%{transform:translateY(62px)}100%{transform:translateY(0)}}
@keyframes ping{0%,100%{opacity:.15}50%{opacity:.6}}
.pop{animation:pop .5s ease-out both}
.dash{animation:dash 2.4s linear infinite}
.scan{animation:scan 3.2s ease-in-out infinite}
.ping{animation:ping 2.6s ease-in-out infinite}
</style>
<rect x="1" y="1" width="518" height="304" rx="12" fill="#010203" stroke="#10241a"/>
<rect x="1" y="1" width="518" height="3" rx="1.5" fill="#00ff41" opacity=".55"/>
<rect x="22" y="20" width="34" height="34" rx="9" fill="#00ff41"/>
<g transform="translate(27,25) scale(0.83)"><path d="M3 7c4 0 4 4 8 4s4-4 8-4M3 15c4 0 4 4 8 4s4-4 8-4" fill="none" stroke="#010203" stroke-width="2" stroke-linecap="round"/></g>
<text class="t" x="68" y="36" font-size="14.5" fill="#d8e4dc" font-weight="600">Flow Matching Parameterisation</text>
<text class="t" x="68" y="51" font-size="9" fill="#7d8f85" letter-spacing="1.1">PYTHON &#183; PYTORCH &#183; GENERATIVE MODELS</text>
<rect x="22" y="68" width="476" height="132" rx="8" fill="#0a0f0c" stroke="#10241a"/>
<clipPath id="c"><rect x="22" y="68" width="476" height="132" rx="8"/></clipPath>
<g clip-path="url(#c)"><g transform="translate(22,68)"><circle cx="65.3" cy="33.9" r="2.2" fill="#00e5ff" opacity=".55"/><circle cx="90.8" cy="26.7" r="2.2" fill="#00e5ff" opacity=".55"/><circle cx="81.8" cy="53.6" r="2.2" fill="#00e5ff" opacity=".55"/><circle cx="44.5" cy="66.7" r="2.2" fill="#00e5ff" opacity=".55"/><circle cx="42.9" cy="59.9" r="2.2" fill="#00e5ff" opacity=".55"/><circle cx="45.4" cy="28.3" r="2.2" fill="#00e5ff" opacity=".55"/><circle cx="73.1" cy="96.1" r="2.2" fill="#00e5ff" opacity=".55"/><circle cx="49.7" cy="40.5" r="2.2" fill="#00e5ff" opacity=".55"/><circle cx="88.9" cy="107.2" r="2.2" fill="#00e5ff" opacity=".55"/><circle cx="85.0" cy="56.5" r="2.2" fill="#00e5ff" opacity=".55"/><circle cx="116.1" cy="24.3" r="2.2" fill="#00e5ff" opacity=".55"/><circle cx="107.0" cy="46.6" r="2.2" fill="#00e5ff" opacity=".55"/><circle cx="51.3" cy="30.8" r="2.2" fill="#00e5ff" opacity=".55"/><circle cx="64.1" cy="95.1" r="2.2" fill="#00e5ff" opacity=".55"/><circle cx="54.1" cy="73.5" r="2.2" fill="#00e5ff" opacity=".55"/><circle cx="89.8" cy="54.3" r="2.2" fill="#00e5ff" opacity=".55"/><circle cx="82.7" cy="25.8" r="2.2" fill="#00e5ff" opacity=".55"/><circle cx="44.6" cy="38.9" r="2.2" fill="#00e5ff" opacity=".55"/><circle cx="93.1" cy="59.3" r="2.2" fill="#00e5ff" opacity=".55"/><circle cx="64.5" cy="73.9" r="2.2" fill="#00e5ff" opacity=".55"/><circle cx="75.3" cy="47.6" r="2.2" fill="#00e5ff" opacity=".55"/><circle cx="102.0" cy="84.3" r="2.2" fill="#00e5ff" opacity=".55"/><circle cx="59.0" cy="72.8" r="2.2" fill="#00e5ff" opacity=".55"/><circle cx="81.0" cy="100.5" r="2.2" fill="#00e5ff" opacity=".55"/><circle cx="96.9" cy="46.5" r="2.2" fill="#00e5ff" opacity=".55"/><circle cx="116.5" cy="30.9" r="2.2" fill="#00e5ff" opacity=".55"/><circle cx="330" cy="22" r="2.6" fill="#00ff41" opacity=".9"/><circle cx="352" cy="22" r="2.6" fill="#00ff41" opacity=".9"/><circle cx="374" cy="22" r="2.6" fill="#00ff41" opacity=".9"/><circle cx="396" cy="22" r="2.6" fill="#00ff41" opacity=".9"/><circle cx="418" cy="22" r="2.6" fill="#00ff41" opacity=".9"/><circle cx="330" cy="44" r="2.6" fill="#00ff41" opacity=".9"/><circle cx="352" cy="44" r="2.6" fill="#00ff41" opacity=".9"/><circle cx="374" cy="44" r="2.6" fill="#00ff41" opacity=".9"/><circle cx="396" cy="44" r="2.6" fill="#00ff41" opacity=".9"/><circle cx="418" cy="44" r="2.6" fill="#00ff41" opacity=".9"/><circle cx="330" cy="66" r="2.6" fill="#00ff41" opacity=".9"/><circle cx="352" cy="66" r="2.6" fill="#00ff41" opacity=".9"/><circle cx="374" cy="66" r="2.6" fill="#00ff41" opacity=".9"/><circle cx="396" cy="66" r="2.6" fill="#00ff41" opacity=".9"/><circle cx="418" cy="66" r="2.6" fill="#00ff41" opacity=".9"/><circle cx="330" cy="88" r="2.6" fill="#00ff41" opacity=".9"/><circle cx="352" cy="88" r="2.6" fill="#00ff41" opacity=".9"/><circle cx="374" cy="88" r="2.6" fill="#00ff41" opacity=".9"/><circle cx="396" cy="88" r="2.6" fill="#00ff41" opacity=".9"/><circle cx="418" cy="88" r="2.6" fill="#00ff41" opacity=".9"/><circle cx="330" cy="110" r="2.6" fill="#00ff41" opacity=".9"/><circle cx="352" cy="110" r="2.6" fill="#00ff41" opacity=".9"/><circle cx="374" cy="110" r="2.6" fill="#00ff41" opacity=".9"/><circle cx="396" cy="110" r="2.6" fill="#00ff41" opacity=".9"/><circle cx="418" cy="110" r="2.6" fill="#00ff41" opacity=".9"/><path class="dash" d="M140 22 C 200 22, 250 34, 300 34" fill="none" stroke="#00ff41" stroke-width="1.2" opacity=".55" stroke-dasharray="5 6" style="animation-delay:-0.00s"/><path class="dash" d="M140 40 C 200 40, 250 47, 300 47" fill="none" stroke="#00ff41" stroke-width="1.2" opacity=".55" stroke-dasharray="5 6" style="animation-delay:-0.35s"/><path class="dash" d="M140 58 C 200 58, 250 60, 300 60" fill="none" stroke="#00ff41" stroke-width="1.2" opacity=".55" stroke-dasharray="5 6" style="animation-delay:-0.70s"/><path class="dash" d="M140 76 C 200 76, 250 73, 300 73" fill="none" stroke="#00ff41" stroke-width="1.2" opacity=".55" stroke-dasharray="5 6" style="animation-delay:-1.05s"/><path class="dash" d="M140 94 C 200 94, 250 86, 300 86" fill="none" stroke="#00ff41" stroke-width="1.2" opacity=".55" stroke-dasharray="5 6" style="animation-delay:-1.40s"/><path class="dash" d="M140 112 C 200 112, 250 99, 300 99" fill="none" stroke="#00ff41" stroke-width="1.2" opacity=".55" stroke-dasharray="5 6" style="animation-delay:-1.75s"/><path d="M296 60 l10 6 -10 6z" fill="#00ff41" opacity=".8"/><text class="t" x="40" y="126" font-size="9.5" fill="#7d8f85">noise</text><text class="t" x="330" y="126" font-size="9.5" fill="#7d8f85">data</text></g></g>
<text class="t" x="22" y="224" font-size="11.5" fill="#9fb3a8">Flow matching from first principles: v-prediction against x-prediction</text><text class="t" x="22" y="242" font-size="11.5" fill="#9fb3a8">across data dimensions, plus MeanFlow with Jacobian-vector-product</text><text class="t" x="22" y="260" font-size="11.5" fill="#9fb3a8">targets. x-prediction holds where v-prediction collapses.</text>
<line x1="22" y1="272" x2="498" y2="272" stroke="#10241a"/>
<text class="t" x="22" y="291" font-size="10.5" fill="#00ff41" opacity=".85">&#8250; github.com/Mayukh-D/image-generation-with-machine-learning</text>
</svg>